<?xml version="1.0" standalone="no"?>
<!DOCTYPE svg PUBLIC "-//W3C//DTD SVG 20010904//EN"
 "http://www.w3.org/TR/2001/REC-SVG-20010904/DTD/svg10.dtd">
<svg version="1.0" xmlns="http://www.w3.org/2000/svg"
 width="128.000000pt" height="128.000000pt" viewBox="0 0 128.000000 128.000000"
 preserveAspectRatio="xMidYMid meet">

<g transform="translate(0.000000,128.000000) scale(0.100000,-0.100000)"
fill="#000000" stroke="none">
<path d="M345 1095 c-14 -13 -25 -31 -25 -40 0 -9 11 -27 25 -40 23 -23 31
-25 130 -25 l106 0 -3 -127 -3 -128 -132 -3 c-128 -2 -133 -3 -138 -25 -83
-351 -115 -497 -115 -519 l0 -28 450 0 450 0 0 24 c0 13 -25 139 -55 280 -30
141 -55 258 -55 261 0 3 -61 5 -135 5 l-135 0 0 -90 0 -90 60 0 c33 0 60 -3
60 -8 0 -4 -43 -50 -95 -102 l-96 -95 -93 100 -94 100 58 3 58 3 6 37 c3 20 6
63 6 95 l0 57 60 0 60 0 0 125 0 125 101 0 c95 0 135 9 151 34 14 20 8 56 -12
76 -19 19 -33 20 -295 20 l-276 0 -24 -25z"/>
</g>
</svg>
